<?xml version="1.0" standalone="no"?>
<!DOCTYPE svg PUBLIC "-//W3C//DTD SVG 20010904//EN"
 "http://www.w3.org/TR/2001/REC-SVG-20010904/DTD/svg10.dtd">
<svg version="1.0" xmlns="http://www.w3.org/2000/svg"
 width="768.000000pt" height="768.000000pt" viewBox="0 0 768.000000 768.000000"
 preserveAspectRatio="xMidYMid meet">
<metadata>
Created by potrace 1.14, written by Peter Selinger 2001-2017
</metadata>
<g transform="translate(0.000000,768.000000) scale(0.100000,-0.100000)"
fill="#000000" stroke="none">
<path d="M1833 6123 c65 -91 842 -1194 857 -1218 8 -13 64 -92 124 -176 59
-84 110 -158 113 -165 2 -7 -17 -27 -42 -44 -26 -18 -88 -67 -139 -108 -459
-381 -795 -955 -861 -1472 -4 -30 -10 -64 -13 -75 -3 -11 -7 -309 -9 -663 l-5
-642 336 0 336 0 1 573 c0 314 2 579 3 587 2 8 6 44 10 80 3 36 8 74 10 85 2
11 7 40 12 65 45 252 135 464 274 648 32 42 67 86 77 97 10 11 45 52 78 90
114 131 261 265 292 265 4 0 33 -36 63 -80 30 -45 71 -102 90 -129 19 -27 41
-57 48 -67 7 -10 108 -154 224 -319 115 -165 220 -314 232 -331 11 -18 73
-105 136 -194 63 -90 122 -173 130 -185 17 -25 94 -136 143 -205 41 -58 393
-558 431 -613 16 -23 80 -115 143 -204 l115 -163 389 0 c310 0 389 3 383 13
-4 6 -49 70 -98 140 -50 71 -95 136 -101 145 -5 9 -26 37 -45 63 -32 43 -398
562 -515 732 -53 76 -145 206 -283 400 -46 65 -82 119 -81 121 2 1 22 16 44
32 318 230 572 514 766 854 113 197 202 444 234 650 4 25 9 53 11 63 13 70 17
256 18 777 1 327 0 601 -2 608 -3 9 -79 12 -333 12 -181 0 -330 -3 -330 -7 -1
-5 -3 -291 -5 -638 -1 -346 -5 -643 -7 -660 -3 -16 -8 -55 -11 -85 -4 -30 -14
-82 -23 -115 -8 -33 -17 -71 -20 -84 -6 -36 -67 -190 -97 -247 -100 -189 -342
-467 -526 -605 -66 -50 -76 -55 -86 -40 -20 27 -830 1183 -866 1234 -18 26
-40 56 -48 67 -8 11 -62 87 -120 170 -58 83 -135 193 -172 245 -38 53 -68 99
-68 104 0 5 -4 11 -8 13 -4 2 -84 112 -177 246 -94 134 -196 279 -227 323
l-58 79 -391 0 -391 0 35 -47z"/>
</g>
</svg>
